<svg width="18" height="18" viewBox="0 0 18 18" fill="none" xmlns="http://www.w3.org/2000/svg">
<g clip-path="url(#clip0)">
<path d="M15.2609 4.81198H13.4522L12.4536 3.30474C12.0768 2.73952 11.4174 2.40039 10.7391 2.40039H6.5942C5.91594 2.40039 5.25652 2.73952 4.87971 3.30474L3.88116 4.81198H2.07246C0.923188 4.81198 0 5.73517 0 6.88445V14.1946C0 15.3439 0.923188 16.2671 2.07246 16.2671H15.2609C16.4101 16.2671 17.3333 15.3439 17.3333 14.1946V6.88445C17.3333 5.73517 16.4101 4.81198 15.2609 4.81198ZM8.66667 14.5714C6.08551 14.5714 3.9942 12.4801 3.9942 9.89894C3.9942 7.31778 6.08551 5.24532 8.66667 5.24532C11.2478 5.24532 13.3391 7.33662 13.3391 9.91778C13.3391 12.4801 11.2478 14.5714 8.66667 14.5714ZM14.9971 7.73227C14.9783 7.73227 14.9594 7.73227 14.9217 7.73227H14.1681C13.829 7.71343 13.5652 7.43082 13.5841 7.09169C13.6029 6.7714 13.8478 6.52648 14.1681 6.50764H14.9217C15.2609 6.4888 15.5435 6.75256 15.5623 7.09169C15.5812 7.43082 15.3362 7.71343 14.9971 7.73227Z" fill="#121212"/>
<path d="M8.66641 7.31738C7.23452 7.31738 6.06641 8.4855 6.06641 9.91738C6.06641 11.3493 7.23452 12.4985 8.66641 12.4985C10.0983 12.4985 11.2664 11.3304 11.2664 9.89854C11.2664 8.46666 10.0983 7.31738 8.66641 7.31738Z" fill="#121212"/>
</g>
<defs>
<clipPath id="clip0">
<rect width="17.3333" height="17.3333" fill="white" transform="translate(0 0.666992)"/>
</clipPath>
</defs>
</svg>
