<svg width="16" height="16" viewBox="0 0 16 16" fill="none" xmlns="http://www.w3.org/2000/svg">
<path d="M12.6673 5.9987C12.6673 6.96536 12.3807 7.85204 11.8873 8.59204C11.1673 9.65871 10.0273 10.412 8.70065 10.6054C8.47398 10.6454 8.24065 10.6654 8.00065 10.6654C7.76065 10.6654 7.52732 10.6454 7.30065 10.6054C5.97398 10.412 4.83398 9.65871 4.11398 8.59204C3.62065 7.85204 3.33398 6.96536 3.33398 5.9987C3.33398 3.4187 5.42065 1.33203 8.00065 1.33203C10.5807 1.33203 12.6673 3.4187 12.6673 5.9987Z" stroke="#121212" stroke-linecap="round" stroke-linejoin="round"/>
<path d="M14.1674 12.3149L13.0674 12.5749C12.8207 12.6349 12.6274 12.8216 12.574 13.0682L12.3407 14.0482C12.214 14.5816 11.534 14.7416 11.1807 14.3216L8.0007 10.6682L4.8207 14.3282C4.46737 14.7482 3.78737 14.5882 3.6607 14.0549L3.42737 13.0749C3.36737 12.8282 3.17404 12.6349 2.93404 12.5816L1.83404 12.3216C1.32737 12.2016 1.14737 11.5682 1.51404 11.2016L4.11404 8.60156C4.83404 9.66823 5.97404 10.4216 7.3007 10.6149C7.52737 10.6549 7.7607 10.6749 8.0007 10.6749C8.2407 10.6749 8.47404 10.6549 8.7007 10.6149C10.0274 10.4216 11.1674 9.66823 11.8874 8.60156L14.4874 11.2016C14.854 11.5616 14.674 12.1949 14.1674 12.3149Z" stroke="#121212" stroke-linecap="round" stroke-linejoin="round"/>
<path d="M8.38535 3.98797L8.77868 4.77463C8.83201 4.8813 8.97201 4.98797 9.09868 5.00797L9.81201 5.12796C10.2653 5.2013 10.372 5.53463 10.0453 5.8613L9.49201 6.41462C9.39868 6.50796 9.34535 6.68797 9.37868 6.8213L9.53868 7.50797C9.66535 8.04797 9.37868 8.26129 8.89868 7.97462L8.23201 7.58129C8.11201 7.50796 7.91201 7.50796 7.79201 7.58129L7.12535 7.97462C6.64535 8.25462 6.35868 8.04797 6.48535 7.50797L6.64535 6.8213C6.67201 6.69464 6.62535 6.50796 6.53201 6.41462L5.97868 5.8613C5.65201 5.53463 5.75868 5.20796 6.21201 5.12796L6.92535 5.00797C7.04535 4.98797 7.18535 4.8813 7.23868 4.77463L7.63201 3.98797C7.82535 3.5613 8.17201 3.5613 8.38535 3.98797Z" stroke="#121212" stroke-linecap="round" stroke-linejoin="round"/>
</svg>
