<svg width="72" height="77" viewBox="0 0 72 77" fill="none" xmlns="http://www.w3.org/2000/svg">
<g filter="url(#filter0_d)">
<path d="M42.3343 13.748V11.668C42.3343 11.1213 41.881 10.668 41.3343 10.668C40.7876 10.668 40.3343 11.1213 40.3343 11.668V13.668H31.6676V11.668C31.6676 11.1213 31.2143 10.668 30.6676 10.668C30.121 10.668 29.6676 11.1213 29.6676 11.668V13.748C26.0676 14.0813 24.321 16.228 24.0543 19.4146C24.0276 19.8013 24.3476 20.1213 24.721 20.1213H47.281C47.6676 20.1213 47.9876 19.788 47.9476 19.4146C47.681 16.228 45.9343 14.0813 42.3343 13.748Z" fill="#D52828"/>
<path d="M46.6667 22.1211H25.3333C24.6 22.1211 24 22.7211 24 23.4544V31.6678C24 35.6678 26 38.3344 30.6667 38.3344H41.3333C46 38.3344 48 35.6678 48 31.6678V23.4544C48 22.7211 47.4 22.1211 46.6667 22.1211ZM32.28 33.2811C32.1467 33.4011 32 33.4944 31.84 33.5611C31.68 33.6278 31.5067 33.6678 31.3333 33.6678C31.16 33.6678 30.9867 33.6278 30.8267 33.5611C30.6667 33.4944 30.52 33.4011 30.3867 33.2811C30.1467 33.0278 30 32.6811 30 32.3344C30 31.9878 30.1467 31.6411 30.3867 31.3878C30.52 31.2678 30.6667 31.1744 30.8267 31.1078C31.1467 30.9744 31.52 30.9744 31.84 31.1078C32 31.1744 32.1467 31.2678 32.28 31.3878C32.52 31.6411 32.6667 31.9878 32.6667 32.3344C32.6667 32.6811 32.52 33.0278 32.28 33.2811ZM32.56 28.1744C32.4933 28.3344 32.4 28.4811 32.28 28.6144C32.1467 28.7344 32 28.8278 31.84 28.8944C31.68 28.9611 31.5067 29.0011 31.3333 29.0011C31.16 29.0011 30.9867 28.9611 30.8267 28.8944C30.6667 28.8278 30.52 28.7344 30.3867 28.6144C30.2667 28.4811 30.1733 28.3344 30.1067 28.1744C30.04 28.0144 30 27.8411 30 27.6678C30 27.4944 30.04 27.3211 30.1067 27.1611C30.1733 27.0011 30.2667 26.8544 30.3867 26.7211C30.52 26.6011 30.6667 26.5078 30.8267 26.4411C31.1467 26.3078 31.52 26.3078 31.84 26.4411C32 26.5078 32.1467 26.6011 32.28 26.7211C32.4 26.8544 32.4933 27.0011 32.56 27.1611C32.6267 27.3211 32.6667 27.4944 32.6667 27.6678C32.6667 27.8411 32.6267 28.0144 32.56 28.1744ZM36.9467 28.6144C36.8133 28.7344 36.6667 28.8278 36.5067 28.8944C36.3467 28.9611 36.1733 29.0011 36 29.0011C35.8267 29.0011 35.6533 28.9611 35.4933 28.8944C35.3333 28.8278 35.1867 28.7344 35.0533 28.6144C34.8133 28.3611 34.6667 28.0144 34.6667 27.6678C34.6667 27.3211 34.8133 26.9744 35.0533 26.7211C35.1867 26.6011 35.3333 26.5078 35.4933 26.4411C35.8133 26.2944 36.1867 26.2944 36.5067 26.4411C36.6667 26.5078 36.8133 26.6011 36.9467 26.7211C37.1867 26.9744 37.3333 27.3211 37.3333 27.6678C37.3333 28.0144 37.1867 28.3611 36.9467 28.6144Z" fill="#D52828"/>
</g>
<defs>
<filter id="filter0_d" x="-4" y="-1" width="80" height="80" filterUnits="userSpaceOnUse" color-interpolation-filters="sRGB">
<feFlood flood-opacity="0" result="BackgroundImageFix"/>
<feColorMatrix in="SourceAlpha" type="matrix" values="0 0 0 0 0 0 0 0 0 0 0 0 0 0 0 0 0 0 127 0" result="hardAlpha"/>
<feOffset dy="14"/>
<feGaussianBlur stdDeviation="12"/>
<feComposite in2="hardAlpha" operator="out"/>
<feColorMatrix type="matrix" values="0 0 0 0 1 0 0 0 0 0 0 0 0 0 0.192157 0 0 0 0.62 0"/>
<feBlend mode="normal" in2="BackgroundImageFix" result="effect1_dropShadow"/>
<feBlend mode="normal" in="SourceGraphic" in2="effect1_dropShadow" result="shape"/>
</filter>
</defs>
</svg>
