<svg width="54" height="54" viewBox="0 0 54 54" fill="none" xmlns="http://www.w3.org/2000/svg">
<circle opacity="0.2" cx="27" cy="27" r="27" fill="#D52828"/>
<mask id="mask0_3109:2850" style="mask-type:alpha" maskUnits="userSpaceOnUse" x="0" y="0" width="54" height="54">
<circle cx="27" cy="27" r="27" fill="#D52828"/>
</mask>
<g mask="url(#mask0_3109:2850)">
<g filter="url(#filter0_d_3109:2850)">
<path d="M27.9021 37.6093C28.2684 37.6945 28.302 38.1743 27.9452 38.2932L25.8385 38.9866C20.5452 40.6932 17.7585 39.2666 16.0385 33.9732L14.3318 28.7066C12.6252 23.4132 14.0385 20.6132 19.3318 18.9066L20.3692 18.563C20.772 18.4296 21.1597 18.832 21.0373 19.2383C20.9253 19.6103 20.8202 20.0064 20.7185 20.4266L19.4118 26.0132C17.9452 32.2932 20.0918 35.7599 26.3718 37.2532L27.9021 37.6093Z" fill="#D52828"/>
<path d="M33.8929 15.2807L31.6663 14.7607C27.2129 13.7073 24.5596 14.574 22.9996 17.8007C22.5996 18.614 22.2796 19.6007 22.0129 20.734L20.7063 26.3207C19.3996 31.894 21.1196 34.6407 26.6796 35.9607L28.9196 36.494C29.6929 36.6807 30.4129 36.8007 31.0796 36.854C35.2396 37.254 37.4529 35.3073 38.5729 30.494L39.8796 24.9207C41.1863 19.3473 39.4796 16.5873 33.8929 15.2807ZM31.3863 28.774C31.2663 29.2273 30.8663 29.5207 30.4129 29.5207C30.3329 29.5207 30.2529 29.5073 30.1596 29.494L26.2796 28.5073C25.7463 28.374 25.4263 27.8273 25.5596 27.294C25.6929 26.7607 26.2396 26.4407 26.7729 26.574L30.6529 27.5607C31.1996 27.694 31.5196 28.2407 31.3863 28.774ZM35.2929 24.2673C35.1729 24.7207 34.7729 25.014 34.3196 25.014C34.2396 25.014 34.1596 25.0007 34.0663 24.9873L27.5996 23.3473C27.0663 23.214 26.7463 22.6673 26.8796 22.134C27.0129 21.6007 27.5596 21.2807 28.0929 21.414L34.5596 23.054C35.1063 23.174 35.4263 23.7207 35.2929 24.2673Z" fill="#D52828"/>
</g>
</g>
<defs>
<filter id="filter0_d_3109:2850" x="-13" y="1" width="80" height="80" filterUnits="userSpaceOnUse" color-interpolation-filters="sRGB">
<feFlood flood-opacity="0" result="BackgroundImageFix"/>
<feColorMatrix in="SourceAlpha" type="matrix" values="0 0 0 0 0 0 0 0 0 0 0 0 0 0 0 0 0 0 127 0" result="hardAlpha"/>
<feOffset dy="14"/>
<feGaussianBlur stdDeviation="12"/>
<feComposite in2="hardAlpha" operator="out"/>
<feColorMatrix type="matrix" values="0 0 0 0 1 0 0 0 0 0 0 0 0 0 0.192157 0 0 0 0.62 0"/>
<feBlend mode="normal" in2="BackgroundImageFix" result="effect1_dropShadow_3109:2850"/>
<feBlend mode="normal" in="SourceGraphic" in2="effect1_dropShadow_3109:2850" result="shape"/>
</filter>
</defs>
</svg>
