<svg width="76" height="74" viewBox="0 0 76 74" fill="none" xmlns="http://www.w3.org/2000/svg">
<g filter="url(#filter0_d)">
<path d="M38.9021 33.6093C39.2684 33.6945 39.302 34.1743 38.9452 34.2932L36.8385 34.9866C31.5452 36.6932 28.7585 35.2666 27.0385 29.9732L25.3318 24.7066C23.6252 19.4132 25.0385 16.6132 30.3318 14.9066L31.3692 14.563C31.772 14.4296 32.1597 14.832 32.0373 15.2383C31.9253 15.6103 31.8202 16.0064 31.7185 16.4266L30.4118 22.0132C28.9452 28.2932 31.0918 31.7599 37.3718 33.2532L38.9021 33.6093Z" fill="#D52828"/>
<path d="M44.8929 11.2807L42.6663 10.7607C38.2129 9.70733 35.5596 10.574 33.9996 13.8007C33.5996 14.614 33.2796 15.6007 33.0129 16.734L31.7063 22.3207C30.3996 27.894 32.1196 30.6407 37.6796 31.9607L39.9196 32.494C40.6929 32.6807 41.4129 32.8007 42.0796 32.854C46.2396 33.254 48.4529 31.3073 49.5729 26.494L50.8796 20.9207C52.1863 15.3473 50.4796 12.5873 44.8929 11.2807ZM42.3863 24.774C42.2663 25.2273 41.8663 25.5207 41.4129 25.5207C41.3329 25.5207 41.2529 25.5073 41.1596 25.494L37.2796 24.5073C36.7463 24.374 36.4263 23.8273 36.5596 23.294C36.6929 22.7607 37.2396 22.4407 37.7729 22.574L41.6529 23.5607C42.1996 23.694 42.5196 24.2407 42.3863 24.774ZM46.2929 20.2673C46.1729 20.7207 45.7729 21.014 45.3196 21.014C45.2396 21.014 45.1596 21.0007 45.0663 20.9873L38.5996 19.3473C38.0663 19.214 37.7463 18.6673 37.8796 18.134C38.0129 17.6007 38.5596 17.2807 39.0929 17.414L45.5596 19.054C46.1063 19.174 46.4263 19.7207 46.2929 20.2673Z" fill="#D52828"/>
</g>
<defs>
<filter id="filter0_d" x="-2" y="-3" width="80" height="80" filterUnits="userSpaceOnUse" color-interpolation-filters="sRGB">
<feFlood flood-opacity="0" result="BackgroundImageFix"/>
<feColorMatrix in="SourceAlpha" type="matrix" values="0 0 0 0 0 0 0 0 0 0 0 0 0 0 0 0 0 0 127 0" result="hardAlpha"/>
<feOffset dy="14"/>
<feGaussianBlur stdDeviation="12"/>
<feComposite in2="hardAlpha" operator="out"/>
<feColorMatrix type="matrix" values="0 0 0 0 1 0 0 0 0 0 0 0 0 0 0.192157 0 0 0 0.62 0"/>
<feBlend mode="normal" in2="BackgroundImageFix" result="effect1_dropShadow"/>
<feBlend mode="normal" in="SourceGraphic" in2="effect1_dropShadow" result="shape"/>
</filter>
</defs>
</svg>
