<svg width="76" height="76" viewBox="0 0 76 76" fill="none" xmlns="http://www.w3.org/2000/svg">
<g filter="url(#filter0_d)">
<path d="M45.3734 18.3613C45.2801 18.348 45.1867 18.348 45.0934 18.3613C43.0267 18.2946 41.3867 16.6013 41.3867 14.5213C41.3867 12.4013 43.1067 10.668 45.2401 10.668C47.3601 10.668 49.0934 12.388 49.0934 14.5213C49.0801 16.6013 47.4401 18.2946 45.3734 18.3613Z" fill="#D52828"/>
<path d="M49.7214 27.6005C48.2281 28.6005 46.1348 28.9739 44.2014 28.7205C44.7081 27.6272 44.9748 26.4139 44.9881 25.1339C44.9881 23.8005 44.6948 22.5339 44.1348 21.4272C46.1081 21.1605 48.2014 21.5339 49.7081 22.5339C51.8148 23.9205 51.8148 26.2005 49.7214 27.6005Z" fill="#D52828"/>
<path d="M30.5856 18.3613C30.6789 18.348 30.7722 18.348 30.8656 18.3613C32.9322 18.2946 34.5722 16.6013 34.5722 14.5213C34.5722 12.388 32.8522 10.668 30.7189 10.668C28.5989 10.668 26.8789 12.388 26.8789 14.5213C26.8789 16.6013 28.5189 18.2946 30.5856 18.3613Z" fill="#D52828"/>
<path d="M30.7335 25.1341C30.7335 26.4275 31.0135 27.6541 31.5202 28.7608C29.6402 28.9608 27.6802 28.5608 26.2402 27.6141C24.1335 26.2141 24.1335 23.9341 26.2402 22.5341C27.6668 21.5741 29.6802 21.1875 31.5735 21.4008C31.0268 22.5208 30.7335 23.7875 30.7335 25.1341Z" fill="#D52828"/>
<path d="M38.1604 29.16C38.0537 29.1467 37.9337 29.1467 37.8137 29.16C35.3604 29.08 33.4004 27.0667 33.4004 24.5867C33.4137 22.0533 35.4537 20 38.0004 20C40.5337 20 42.5871 22.0533 42.5871 24.5867C42.5737 27.0667 40.6271 29.08 38.1604 29.16Z" fill="#D52828"/>
<path d="M33.8264 31.9195C31.8131 33.2662 31.8131 35.4795 33.8264 36.8129C36.1197 38.3462 39.8797 38.3462 42.1731 36.8129C44.1864 35.4662 44.1864 33.2529 42.1731 31.9195C39.8931 30.3862 36.1331 30.3862 33.8264 31.9195Z" fill="#D52828"/>
</g>
<defs>
<filter id="filter0_d" x="-2" y="-2" width="80" height="80" filterUnits="userSpaceOnUse" color-interpolation-filters="sRGB">
<feFlood flood-opacity="0" result="BackgroundImageFix"/>
<feColorMatrix in="SourceAlpha" type="matrix" values="0 0 0 0 0 0 0 0 0 0 0 0 0 0 0 0 0 0 127 0" result="hardAlpha"/>
<feOffset dy="14"/>
<feGaussianBlur stdDeviation="12"/>
<feComposite in2="hardAlpha" operator="out"/>
<feColorMatrix type="matrix" values="0 0 0 0 1 0 0 0 0 0 0 0 0 0 0.192157 0 0 0 0.62 0"/>
<feBlend mode="normal" in2="BackgroundImageFix" result="effect1_dropShadow"/>
<feBlend mode="normal" in="SourceGraphic" in2="effect1_dropShadow" result="shape"/>
</filter>
</defs>
</svg>
