<svg width="32" height="32" viewBox="0 0 32 32" fill="none" xmlns="http://www.w3.org/2000/svg">
<path d="M31.649 15.9993C31.649 24.6419 24.6429 31.6481 16.0003 31.6481C7.35774 31.6481 0.351562 24.6419 0.351562 15.9993C0.351562 7.35676 7.35774 0.350586 16.0003 0.350586C24.6429 0.350586 31.649 7.35676 31.649 15.9993Z" fill="white" stroke="#E8E5E5" stroke-width="0.5"/>
<path d="M16.003 31.8986C13.0663 31.8986 10.1296 31.0885 7.69922 29.5695L18.3321 0.303711C26.9397 1.5189 32.9144 9.62017 31.6992 18.2278C30.5853 26.0252 23.9018 31.8986 16.003 31.8986Z" fill="#4287F6"/>
<path d="M10.6336 15.899C10.6336 15.5952 10.6336 15.3927 10.5323 15.0889H6.88672V16.5066H9.0133C8.91204 17.0129 8.60824 17.5192 8.20317 17.7218L9.41836 18.8357H9.51963C10.2285 18.0256 10.6336 17.0129 10.6336 15.899Z" fill="#1976D2"/>
<path d="M6.88444 19.747C7.79584 19.747 8.70723 19.4432 9.41609 18.8356L8.2009 17.9242C7.79584 18.228 7.28951 18.3292 6.88444 18.3292C5.87179 18.3292 4.96039 17.6204 4.6566 16.709L3.44141 17.5191C4.049 18.9368 5.46672 19.747 6.88444 19.747Z" fill="#4CAF50"/>
<path d="M4.65744 16.6078C4.55617 16.4053 4.55617 16.1015 4.55617 15.7977C4.55617 15.4939 4.55617 15.2914 4.65744 14.9876L3.44225 14.0762C2.93592 15.1901 2.93592 16.5066 3.44225 17.5192L4.65744 16.6078Z" fill="#FFC107"/>
<path d="M6.88444 13.4682C7.39077 13.4682 7.99837 13.6707 8.40343 14.0758L9.51736 12.9619C8.8085 12.253 7.8971 11.9492 6.88444 11.9492C5.36546 11.9492 4.049 12.7593 3.44141 14.0758L4.6566 15.0885C4.96039 14.0758 5.87179 13.4682 6.88444 13.4682Z" fill="#FF3D00"/>
<path d="M16.7122 16.3042V19.1397H15.8008V12.1523H18.2312C18.8388 12.1523 19.3451 12.3549 19.7501 12.7599C20.5603 13.4688 20.6615 14.7853 19.8514 15.5954L19.7501 15.6966C19.3451 16.1017 18.7375 16.3042 18.2312 16.3042H16.7122ZM16.7122 12.9625V15.3928H18.2312C18.94 15.3928 19.4464 14.8865 19.4464 14.1777C19.4464 13.8739 19.3451 13.5701 19.1426 13.3675C18.94 13.165 18.6362 12.9625 18.2312 12.9625H16.7122ZM22.4843 14.1777C23.0919 14.1777 23.5982 14.3802 24.1046 14.684C24.5096 15.0891 24.7122 15.5954 24.7122 16.1017V19.0384H23.8008V18.3296C23.497 18.8359 22.8894 19.1397 22.2818 19.1397C21.7755 19.1397 21.3704 19.0384 20.9653 18.6334C20.6615 18.3296 20.459 17.9245 20.459 17.4182C20.459 16.9118 20.6615 16.5068 21.0666 16.203C21.4717 15.8992 22.0793 15.6966 22.5856 15.7979C23.0919 15.7979 23.497 15.8992 23.902 16.1017V15.8992C23.902 15.5954 23.8008 15.2916 23.497 15.0891C23.2945 14.8865 22.9907 14.7853 22.5856 14.7853C22.0793 14.7853 21.6742 14.9878 21.3704 15.3928L20.5603 15.0891C20.9653 14.4815 21.7755 14.1777 22.4843 14.1777ZM21.3704 17.6207C21.3704 17.8232 21.4717 18.0258 21.6742 18.2283C21.8767 18.4308 22.0793 18.4308 22.3831 18.4308C22.7881 18.4308 23.0919 18.3296 23.3957 18.0258C23.6995 17.8232 23.8008 17.4182 23.8008 17.0131C23.497 16.8106 23.0919 16.608 22.5856 16.7093C22.2818 16.7093 21.978 16.8106 21.6742 17.0131C21.4717 17.1144 21.3704 17.4182 21.3704 17.6207ZM29.6742 14.3802L26.6362 21.2663H25.7248L26.8388 18.8359L24.8134 14.3802H25.8261L27.2438 17.8232L28.6615 14.3802H29.6742Z" fill="white"/>
</svg>
