<svg width="24" height="24" viewBox="0 0 24 24" fill="none" xmlns="http://www.w3.org/2000/svg">
<path d="M22.3013 7.34372L14.6596 1.23039C13.1663 0.040386 10.833 0.0287194 9.3513 1.21872L1.70963 7.34372C0.612965 8.21872 -0.0520355 9.96872 0.181298 11.3454L1.6513 20.1421C1.98963 22.1137 3.8213 23.6654 5.8163 23.6654H18.183C20.1546 23.6654 22.0213 22.0787 22.3596 20.1304L23.8296 11.3337C24.0396 9.96872 23.3746 8.21872 22.3013 7.34372ZM12.8746 18.9987C12.8746 19.4771 12.478 19.8737 11.9996 19.8737C11.5213 19.8737 11.1246 19.4771 11.1246 18.9987V15.4987C11.1246 15.0204 11.5213 14.6237 11.9996 14.6237C12.478 14.6237 12.8746 15.0204 12.8746 15.4987V18.9987Z" fill="#D52828"/>
</svg>
