<svg width="28" height="24" viewBox="0 0 28 24" fill="none" xmlns="http://www.w3.org/2000/svg">
<path d="M26.2006 4.22536C25.654 3.93203 24.5073 3.62536 22.9473 4.7187L20.9873 6.10536C20.8406 1.9587 19.0406 0.332031 14.6673 0.332031H6.66732C2.10732 0.332031 0.333984 2.10536 0.333984 6.66536V17.332C0.333984 20.3987 2.00065 23.6654 6.66732 23.6654H14.6673C19.0406 23.6654 20.8406 22.0387 20.9873 17.892L22.9473 19.2787C23.774 19.8654 24.494 20.052 25.0673 20.052C25.5606 20.052 25.9473 19.9054 26.2006 19.772C26.7473 19.492 27.6673 18.732 27.6673 16.8254V7.17203C27.6673 5.26537 26.7473 4.50536 26.2006 4.22536ZM12.6673 11.172C11.294 11.172 10.1607 10.052 10.1607 8.66537C10.1607 7.2787 11.294 6.1587 12.6673 6.1587C14.0407 6.1587 15.174 7.2787 15.174 8.66537C15.174 10.052 14.0407 11.172 12.6673 11.172Z" fill="#D52828"/>
</svg>
