<svg width="48" height="48" viewBox="0 0 48 48" fill="none" xmlns="http://www.w3.org/2000/svg">
<path d="M24 15.5C20.22 15.5 19.5 17.08 19.5 20V21.24H28.5V20C28.5 17.08 27.78 15.5 24 15.5Z" fill="#B0ADAD"/>
<path d="M23.9988 30.2008C25.2139 30.2008 26.1988 29.2158 26.1988 28.0008C26.1988 26.7858 25.2139 25.8008 23.9988 25.8008C22.7838 25.8008 21.7988 26.7858 21.7988 28.0008C21.7988 29.2158 22.7838 30.2008 23.9988 30.2008Z" fill="#B0ADAD"/>
<path d="M24 4C12.96 4 4 12.96 4 24C4 35.04 12.96 44 24 44C35.04 44 44 35.04 44 24C44 12.96 35.04 4 24 4ZM34.76 29C34.76 33.4 33.4 34.76 29 34.76H19C14.6 34.76 13.24 33.4 13.24 29V27C13.24 23.58 14.06 22 16.5 21.46V20C16.5 18.14 16.5 12.5 24 12.5C31.5 12.5 31.5 18.14 31.5 20V21.46C33.94 22 34.76 23.58 34.76 27V29Z" fill="#B0ADAD"/>
</svg>
