<svg width="88" height="88" viewBox="0 0 88 88" fill="none" xmlns="http://www.w3.org/2000/svg">
<g filter="url(#filter0_d_3054:3236)">
<path d="M44 21.5C40.22 21.5 39.5 23.08 39.5 26V27.24H48.5V26C48.5 23.08 47.78 21.5 44 21.5Z" fill="#D42828"/>
<path d="M43.9988 36.2008C45.2139 36.2008 46.1988 35.2158 46.1988 34.0008C46.1988 32.7858 45.2139 31.8008 43.9988 31.8008C42.7838 31.8008 41.7988 32.7858 41.7988 34.0008C41.7988 35.2158 42.7838 36.2008 43.9988 36.2008Z" fill="#D42828"/>
<path d="M44 10C32.96 10 24 18.96 24 30C24 41.04 32.96 50 44 50C55.04 50 64 41.04 64 30C64 18.96 55.04 10 44 10ZM54.76 35C54.76 39.4 53.4 40.76 49 40.76H39C34.6 40.76 33.24 39.4 33.24 35V33C33.24 29.58 34.06 28 36.5 27.46V26C36.5 24.14 36.5 18.5 44 18.5C51.5 18.5 51.5 24.14 51.5 26V27.46C53.94 28 54.76 29.58 54.76 33V35Z" fill="#D42828"/>
</g>
<defs>
<filter id="filter0_d_3054:3236" x="-4" y="-4" width="96" height="96" filterUnits="userSpaceOnUse" color-interpolation-filters="sRGB">
<feFlood flood-opacity="0" result="BackgroundImageFix"/>
<feColorMatrix in="SourceAlpha" type="matrix" values="0 0 0 0 0 0 0 0 0 0 0 0 0 0 0 0 0 0 127 0" result="hardAlpha"/>
<feOffset dy="14"/>
<feGaussianBlur stdDeviation="12"/>
<feComposite in2="hardAlpha" operator="out"/>
<feColorMatrix type="matrix" values="0 0 0 0 1 0 0 0 0 0 0 0 0 0 0.192157 0 0 0 0.62 0"/>
<feBlend mode="normal" in2="BackgroundImageFix" result="effect1_dropShadow_3054:3236"/>
<feBlend mode="normal" in="SourceGraphic" in2="effect1_dropShadow_3054:3236" result="shape"/>
</filter>
</defs>
</svg>
