<svg width="38" height="38" viewBox="0 0 38 38" fill="none" xmlns="http://www.w3.org/2000/svg">
<path d="M20.0711 31.599C20.5061 31.7002 20.546 32.27 20.1223 32.4112L17.6206 33.2345C11.3348 35.2612 8.0256 33.567 5.9831 27.2812L3.95643 21.027C1.92977 14.7412 3.6081 11.4162 9.89393 9.38953L11.3163 8.9185C11.7191 8.78508 12.1048 9.18664 11.9781 9.59167C11.8227 10.0883 11.679 10.6226 11.5406 11.1945L9.98893 17.8287C8.24727 25.2862 10.7964 29.4029 18.2539 31.1762L20.0711 31.599Z" fill="white"/>
<path d="M27.1855 5.0828L24.5413 4.4653C19.253 3.21446 16.1021 4.24363 14.2496 8.0753C13.7746 9.04113 13.3946 10.2128 13.078 11.5586L11.5263 18.1928C9.97463 24.8111 12.0171 28.0728 18.6196 29.6403L21.2796 30.2736C22.198 30.4953 23.053 30.6378 23.8446 30.7011C28.7846 31.1761 31.413 28.8645 32.743 23.1486L34.2946 16.5303C35.8463 9.91196 33.8196 6.63446 27.1855 5.0828ZM24.2088 21.1061C24.0663 21.6445 23.5913 21.9928 23.053 21.9928C22.958 21.9928 22.863 21.977 22.7521 21.9611L18.1446 20.7895C17.5113 20.6311 17.1313 19.982 17.2896 19.3486C17.448 18.7153 18.0971 18.3353 18.7305 18.4936L23.338 19.6653C23.9871 19.8236 24.3671 20.4728 24.2088 21.1061ZM28.848 15.7545C28.7055 16.2928 28.2305 16.6411 27.6921 16.6411C27.5971 16.6411 27.5021 16.6253 27.3913 16.6095L19.7121 14.662C19.0788 14.5036 18.6988 13.8545 18.8571 13.2211C19.0155 12.5878 19.6646 12.2078 20.298 12.3661L27.9771 14.3136C28.6263 14.4561 29.0063 15.1053 28.848 15.7545Z" fill="white"/>
</svg>
