<svg width="28" height="28" viewBox="0 0 28 28" fill="none" xmlns="http://www.w3.org/2000/svg">
<path d="M25.6667 5.65667V19.5283C25.6667 20.66 24.745 21.6983 23.6133 21.8383L23.2517 21.885C21.3383 22.1417 18.6433 22.935 16.4733 23.845C15.715 24.16 14.875 23.5883 14.875 22.76V6.53167C14.875 6.1 15.12 5.70333 15.505 5.49333C17.64 4.33833 20.8717 3.31167 23.065 3.125H23.135C24.535 3.125 25.6667 4.25667 25.6667 5.65667Z" fill="#B0ADAD"/>
<path d="M12.4956 5.49333C10.3606 4.33833 7.12893 3.31167 4.9356 3.125H4.85393C3.45393 3.125 2.32227 4.25667 2.32227 5.65667V19.5283C2.32227 20.66 3.24393 21.6983 4.3756 21.8383L4.73727 21.885C6.6506 22.1417 9.3456 22.935 11.5156 23.845C12.2739 24.16 13.1139 23.5883 13.1139 22.76V6.53167C13.1139 6.08833 12.8806 5.70333 12.4956 5.49333ZM5.83393 9.02833H8.45893C8.93727 9.02833 9.33393 9.425 9.33393 9.90333C9.33393 10.3933 8.93727 10.7783 8.45893 10.7783H5.83393C5.3556 10.7783 4.95893 10.3933 4.95893 9.90333C4.95893 9.425 5.3556 9.02833 5.83393 9.02833ZM9.33393 14.2783H5.83393C5.3556 14.2783 4.95893 13.8933 4.95893 13.4033C4.95893 12.925 5.3556 12.5283 5.83393 12.5283H9.33393C9.81227 12.5283 10.2089 12.925 10.2089 13.4033C10.2089 13.8933 9.81227 14.2783 9.33393 14.2783Z" fill="#B0ADAD"/>
</svg>
