<svg width="38" height="38" viewBox="0 0 38 38" fill="none" xmlns="http://www.w3.org/2000/svg">
<path d="M22.7213 3.16797H15.2796C13.6329 3.16797 12.2871 4.49797 12.2871 6.14464V7.63297C12.2871 9.27964 13.6171 10.6096 15.2638 10.6096H22.7213C24.3679 10.6096 25.6979 9.27964 25.6979 7.63297V6.14464C25.7138 4.49797 24.3679 3.16797 22.7213 3.16797Z" fill="white"/>
<path d="M27.2965 7.63249C27.2965 10.15 25.2382 12.2083 22.7207 12.2083H15.279C12.7615 12.2083 10.7032 10.15 10.7032 7.63249C10.7032 6.74582 9.75315 6.19166 8.96148 6.60332C6.72898 7.79082 5.20898 10.15 5.20898 12.8575V27.7567C5.20898 31.6517 8.39148 34.8342 12.2865 34.8342H25.7132C29.6082 34.8342 32.7907 31.6517 32.7907 27.7567V12.8575C32.7907 10.15 31.2707 7.79082 29.0382 6.60332C28.2465 6.19166 27.2965 6.74582 27.2965 7.63249ZM19.6015 26.8383H12.6665C12.0173 26.8383 11.479 26.3 11.479 25.6508C11.479 25.0017 12.0173 24.4633 12.6665 24.4633H19.6015C20.2507 24.4633 20.789 25.0017 20.789 25.6508C20.789 26.3 20.2507 26.8383 19.6015 26.8383ZM23.7498 20.505H12.6665C12.0173 20.505 11.479 19.9667 11.479 19.3175C11.479 18.6683 12.0173 18.13 12.6665 18.13H23.7498C24.399 18.13 24.9373 18.6683 24.9373 19.3175C24.9373 19.9667 24.399 20.505 23.7498 20.505Z" fill="white"/>
</svg>
