<svg width="28" height="28" viewBox="0 0 28 28" fill="none" xmlns="http://www.w3.org/2000/svg">
<path d="M22.5636 16.9037L21.3969 14.967C21.1519 14.5354 20.9303 13.7187 20.9303 13.2404V10.2887C20.9303 7.54703 19.3203 5.1787 16.9986 4.07036C16.3919 2.99703 15.2719 2.33203 13.9886 2.33203C12.7169 2.33203 11.5736 3.02036 10.9669 4.10536C8.69193 5.23703 7.11693 7.58203 7.11693 10.2887V13.2404C7.11693 13.7187 6.89526 14.5354 6.65026 14.9554L5.47193 16.9037C5.00526 17.6854 4.90026 18.5487 5.19193 19.342C5.47193 20.1237 6.13693 20.7304 7.00026 21.022C9.26359 21.792 11.6436 22.1654 14.0236 22.1654C16.4036 22.1654 18.7836 21.792 21.0469 21.0337C21.8636 20.7654 22.4936 20.147 22.7969 19.342C23.1003 18.537 23.0186 17.6504 22.5636 16.9037Z" fill="#B0ADAD"/>
<path d="M17.3007 23.3437C16.8107 24.697 15.5157 25.6654 13.999 25.6654C13.0773 25.6654 12.1673 25.292 11.5257 24.627C11.1523 24.277 10.8723 23.8104 10.709 23.332C10.8607 23.3554 11.0123 23.367 11.1757 23.3904C11.444 23.4254 11.724 23.4604 12.004 23.4837C12.669 23.542 13.3457 23.577 14.0223 23.577C14.6873 23.577 15.3523 23.542 16.0057 23.4837C16.2507 23.4604 16.4957 23.4487 16.729 23.4137C16.9157 23.3904 17.1023 23.367 17.3007 23.3437Z" fill="#B0ADAD"/>
</svg>
