<svg width="16" height="16" viewBox="0 0 16 16" fill="none" xmlns="http://www.w3.org/2000/svg">
<g clip-path="url(#clip0_3054:3124)">
<path d="M14.133 8.97552L13.1108 11.9977C12.2663 14.4866 10.933 15.1533 8.4441 14.3533L5.46632 13.3311C4.53299 13.02 3.86632 12.62 3.42188 12.1311C3.82188 12.3089 4.31076 12.4422 4.88854 12.5311L7.99965 13.02C8.4441 13.0644 8.8441 13.1089 9.19965 13.1089C11.4219 13.1089 12.5774 11.9089 12.9774 9.37552L13.4663 6.26441C13.5108 5.86441 13.5552 5.5533 13.5552 5.24219C14.5774 6.04219 14.7108 7.24219 14.133 8.97552Z" fill="#717171"/>
<path d="M9.73163 1.90867L6.62051 1.41979C3.99829 1.01979 2.79829 1.90867 2.35385 4.48645L1.86496 7.59756C1.59829 9.28645 1.86496 10.3976 2.84274 11.0642C3.33163 11.4198 4.04274 11.6865 4.93163 11.8198L8.04274 12.3087C10.665 12.7087 11.865 11.8198 12.265 9.24201L12.7538 6.1309C12.8872 5.64201 12.8872 5.15312 12.8872 4.75312C12.7983 3.10867 11.8205 2.26423 9.73163 1.90867ZM5.95385 6.21979C5.15385 6.21979 4.53163 5.59756 4.53163 4.79756C4.53163 3.99756 5.15385 3.37534 5.95385 3.37534C6.7094 3.37534 7.37607 3.99756 7.37607 4.79756C7.37607 5.59756 6.7094 6.21979 5.95385 6.21979ZM8.7094 10.5309C8.57607 10.6198 8.44274 10.6642 8.26496 10.6198C8.08718 10.5753 7.95385 10.5309 7.86496 10.3976C7.77607 10.2642 7.73163 10.1309 7.77607 9.95312C7.82052 9.77534 7.86496 9.68645 7.99829 9.59756C8.13163 9.50867 8.3094 9.46423 8.48718 9.50867C8.66496 9.55312 8.79829 9.59756 8.88718 9.7309C8.97607 9.86423 9.02052 9.99756 8.97607 10.1753C8.93163 10.3531 8.84274 10.442 8.7094 10.5309ZM10.9316 7.37534C10.8427 7.81979 10.665 8.17534 10.3094 8.35312C9.99829 8.5309 9.55385 8.57534 9.06496 8.5309L8.93163 9.06423L8.13163 8.88645L8.3094 7.68645L8.62051 7.7309C9.02051 7.77534 9.33163 7.77534 9.59829 7.7309C9.82052 7.64201 9.99829 7.46423 10.0427 7.19756C10.0872 6.97534 10.0427 6.84201 9.95385 6.66423C9.86496 6.5309 9.68718 6.44201 9.5094 6.39756C9.28718 6.35312 9.1094 6.39756 8.97607 6.48645C8.84274 6.57534 8.75385 6.75312 8.7094 6.9309L7.77607 6.79756C7.82052 6.5309 7.9094 6.26423 8.08718 6.08645C8.26496 5.86423 8.44274 5.7309 8.7094 5.64201C8.97607 5.55312 9.28718 5.55312 9.59829 5.59756C10.0872 5.68645 10.4427 5.86423 10.7094 6.17534C10.9316 6.48645 11.0205 6.88645 10.9316 7.37534Z" fill="#717171"/>
</g>
<defs>
<clipPath id="clip0_3054:3124">
<rect width="12.6667" height="13.3333" fill="white" transform="translate(1.77734 1.33203)"/>
</clipPath>
</defs>
</svg>
