<svg width="16" height="16" viewBox="0 0 16 16" fill="none" xmlns="http://www.w3.org/2000/svg">
<path d="M8.0007 3.10156C4.81404 3.10156 2.2207 5.6949 2.2207 8.88156C2.2207 12.0682 4.81404 14.6682 8.0007 14.6682C11.1874 14.6682 13.7807 12.0749 13.7807 8.88823C13.7807 5.70156 11.1874 3.10156 8.0007 3.10156ZM8.50071 8.66823C8.50071 8.94156 8.27404 9.16823 8.0007 9.16823C7.72737 9.16823 7.5007 8.94156 7.5007 8.66823V5.3349C7.5007 5.06156 7.72737 4.8349 8.0007 4.8349C8.27404 4.8349 8.50071 5.06156 8.50071 5.3349V8.66823Z" fill="#717171"/>
<path d="M9.92708 2.2987H6.07375C5.80708 2.2987 5.59375 2.08536 5.59375 1.8187C5.59375 1.55203 5.80708 1.33203 6.07375 1.33203H9.92708C10.1938 1.33203 10.4071 1.54536 10.4071 1.81203C10.4071 2.0787 10.1938 2.2987 9.92708 2.2987Z" fill="#717171"/>
</svg>
