<svg width="16" height="16" viewBox="0 0 16 16" fill="none" xmlns="http://www.w3.org/2000/svg">
<path d="M6.00065 14.6654H10.0007C13.334 14.6654 14.6673 13.332 14.6673 9.9987V5.9987C14.6673 2.66536 13.334 1.33203 10.0007 1.33203H6.00065C2.66732 1.33203 1.33398 2.66536 1.33398 5.9987V9.9987C1.33398 13.332 2.66732 14.6654 6.00065 14.6654Z" stroke="#121212" stroke-linecap="round" stroke-linejoin="round"/>
<path d="M6.06641 8.00097V7.0143C6.06641 5.74097 6.96641 5.22764 8.06641 5.86097L8.91974 6.3543L9.77307 6.84764C10.8731 7.48097 10.8731 8.52097 9.77307 9.1543L8.91974 9.64764L8.06641 10.141C6.96641 10.7743 6.06641 10.2543 6.06641 8.98764V8.00097Z" stroke="#121212" stroke-miterlimit="10" stroke-linecap="round" stroke-linejoin="round"/>
</svg>
